<svg width="476" height="523" viewBox="0 0 476 523" fill="none" xmlns="http://www.w3.org/2000/svg">
<path d="M23.9566 326.923V414.953C32.7026 385.483 73.771 370.082 73.771 341.183C73.771 321.789 55.7085 317.796 36.3151 317.796H14.8302L17.4921 318.367C21.2947 319.317 23.9566 322.93 23.9566 326.923ZM83.6578 343.274C83.6578 376.737 23.9566 387.004 23.9566 426.361V439.671C23.9566 444.234 26.9987 447.086 31.3717 447.086H32.3223V448.797H5.70394V447.086H6.46447C11.0276 447.086 14.0697 444.234 14.0697 439.671V325.211C14.0697 320.648 11.0276 317.796 6.46447 317.796H5.70394V316.085H41.4486C61.6026 316.085 83.6578 322.93 83.6578 343.274ZM102.12 382.441C105.732 422.369 131.21 447.656 162.962 447.656C194.334 447.656 215.248 422.369 211.826 382.631C208.403 342.704 182.736 317.226 151.364 317.226C119.612 317.226 98.6975 342.704 102.12 382.441ZM92.233 382.441C92.233 341.563 119.422 314.374 157.068 314.374C194.524 314.374 221.712 341.563 221.712 382.441C221.712 423.319 194.524 450.508 157.068 450.508C119.422 450.508 92.233 423.319 92.233 382.441ZM251.78 325.211V437.959C251.78 441.952 249.118 445.565 245.316 446.515L242.654 447.086H290.377C297.221 447.086 302.735 442.713 304.066 436.058L305.207 430.544H306.918L303.496 448.797H233.527V447.086H234.288C238.851 447.086 241.893 444.234 241.893 439.671V325.211C241.893 320.648 238.851 317.796 234.288 317.796H233.527V316.085H260.146V317.796H259.195C254.822 317.796 251.78 320.648 251.78 325.211ZM343.992 316.085L377.075 439.671C378.216 444.234 382.018 447.086 386.582 447.086H387.342V448.797H360.534V447.086H361.294C365.857 447.086 367.949 444.234 366.808 439.671L361.294 419.327C350.076 432.446 337.718 450.508 323.268 450.508C302.163 450.508 316.233 412.672 319.846 399.173L337.908 332.056L336.197 325.211C335.056 320.648 331.063 317.796 326.69 317.796H320.796V316.085H343.992ZM360.914 417.805L338.859 335.098L321.557 399.173C316.803 416.855 307.107 442.142 325.549 442.142C337.718 442.142 349.886 430.925 360.914 417.805ZM411.275 326.923V414.953C420.021 385.483 461.089 370.082 461.089 341.183C461.089 321.789 443.027 317.796 423.633 317.796H402.149L404.81 318.367C408.613 319.317 411.275 322.93 411.275 326.923ZM470.976 343.274C470.976 362.477 451.203 374.075 434.471 387.955H435.041C431.429 412.292 456.146 438.91 470.976 438.91V448.797C450.632 448.797 429.908 418.376 433.14 389.096C421.162 398.982 411.275 410.39 411.275 426.361V439.671C411.275 444.234 414.317 447.086 418.69 447.086H419.641V448.797H393.022V447.086H393.783C398.346 447.086 401.388 444.234 401.388 439.671V325.211C401.388 320.648 398.346 317.796 393.783 317.796H393.022V316.085H428.767C448.921 316.085 470.976 322.93 470.976 343.274Z" fill="#3E1132"/>
<path d="M5.32006 508.385H3.88946V478.431H5.32006V508.385ZM14.348 508.385H12.8727V487.105H14.348V493.453C14.9739 489.697 17.6562 486.657 22.0375 486.657C26.2399 486.657 29.3693 489.161 29.3693 494.66V508.385H27.9387V494.839C27.9387 490.323 25.5246 487.909 21.7245 487.909C16.6727 487.909 14.348 491.799 14.348 495.778V508.385ZM42.6929 508.385H40.9493L32.4998 487.105H34.1092L39.3399 500.561L41.8882 507.133L44.347 500.561L49.5777 487.105H51.1424L42.6929 508.385ZM63.195 508.832C57.3384 508.832 53.2701 505.211 53.2701 497.745C53.2701 490.636 57.0255 486.657 62.7032 486.657C68.0679 486.657 71.5998 490.457 71.5998 497.163C71.5998 497.476 71.555 497.879 71.5103 498.147H54.7007C54.7901 504.764 58.322 507.58 63.195 507.58C67.4868 507.58 69.6327 505.211 70.7056 502.707L71.555 503.914C70.1244 506.641 67.5315 508.832 63.195 508.832ZM62.7032 487.909C58.0984 487.909 54.9243 490.949 54.7007 496.985H70.2586C70.1244 490.77 67.0844 487.909 62.7032 487.909ZM84.7881 508.832C80.6305 508.832 76.5622 506.865 75.5339 502.484L76.6963 501.589C77.2775 505.211 80.4069 507.58 84.8329 507.58C88.2305 507.58 90.3764 506.105 90.3764 503.333C90.3764 500.74 88.5435 499.622 85.0564 498.773L82.1058 498.102C78.9763 497.342 76.0704 495.956 76.0704 492.335C76.0704 488.982 78.7975 486.657 82.8658 486.657C87.4705 486.657 90.1529 488.803 91.0917 492.201L89.9741 493.006C88.9905 489.474 86.5764 487.909 82.8211 487.909C79.7363 487.909 77.4563 489.519 77.4563 492.335C77.4563 495.062 79.4234 496.046 82.7317 496.851L85.7717 497.611C89.5717 498.549 91.7623 500.159 91.7623 503.288C91.7623 507.133 88.4988 508.832 84.7881 508.832ZM103.402 508.832C100.496 508.832 97.8585 507.222 97.8585 503.065V488.312H94.3267V487.105H97.8585V483.573L99.2891 482.5V487.105H106.71V488.312H99.2891V502.886C99.2891 506.373 101.346 507.491 103.581 507.491C105.459 507.491 107.426 506.418 108.275 504.719L108.946 506.06C107.962 507.714 105.772 508.832 103.402 508.832ZM114.588 482.902H113.113V478.431H114.588V482.902ZM114.588 508.385H113.113V487.105H114.588V508.385ZM122.927 508.385H121.452V487.105H122.927V493.408C123.553 489.697 126.19 486.657 130.259 486.657C133.969 486.657 136.384 488.803 136.652 493.587C137.233 489.787 139.871 486.657 144.028 486.657C147.962 486.657 150.466 489.072 150.466 494.526V508.385H149.035V494.705C149.035 490.189 147.113 487.909 143.626 487.909C139.021 487.909 136.696 491.799 136.696 495.778V508.385H135.266V494.705C135.266 490.189 133.343 487.909 129.856 487.909C125.252 487.909 122.927 491.799 122.927 495.778V508.385ZM165.705 508.832C159.849 508.832 155.781 505.211 155.781 497.745C155.781 490.636 159.536 486.657 165.214 486.657C170.578 486.657 174.11 490.457 174.11 497.163C174.11 497.476 174.065 497.879 174.021 498.147H157.211C157.301 504.764 160.832 507.58 165.705 507.58C169.997 507.58 172.143 505.211 173.216 502.707L174.065 503.914C172.635 506.641 170.042 508.832 165.705 508.832ZM165.214 487.909C160.609 487.909 157.435 490.949 157.211 496.985H172.769C172.635 490.77 169.595 487.909 165.214 487.909ZM181.167 508.385H179.692V487.105H181.167V493.453C181.793 489.697 184.476 486.657 188.857 486.657C193.059 486.657 196.189 489.161 196.189 494.66V508.385H194.758V494.839C194.758 490.323 192.344 487.909 188.544 487.909C183.492 487.909 181.167 491.799 181.167 495.778V508.385ZM208.794 508.832C205.888 508.832 203.25 507.222 203.25 503.065V488.312H199.719V487.105H203.25V483.573L204.681 482.5V487.105H212.102V488.312H204.681V502.886C204.681 506.373 206.737 507.491 208.973 507.491C210.85 507.491 212.818 506.418 213.667 504.719L214.338 506.06C213.354 507.714 211.163 508.832 208.794 508.832ZM225.12 508.832C219.309 508.832 215.33 504.495 215.33 497.745C215.33 491.039 219.309 486.657 225.12 486.657C230.888 486.657 234.911 491.039 234.911 497.745C234.911 504.495 230.888 508.832 225.12 508.832ZM225.12 507.58C230.083 507.58 233.481 503.78 233.481 497.745C233.481 491.709 230.083 487.909 225.12 487.909C220.113 487.909 216.76 491.709 216.76 497.745C216.76 503.78 220.113 507.58 225.12 507.58ZM248.071 508.832C243.914 508.832 239.845 506.865 238.817 502.484L239.979 501.589C240.561 505.211 243.69 507.58 248.116 507.58C251.514 507.58 253.66 506.105 253.66 503.333C253.66 500.74 251.827 499.622 248.34 498.773L245.389 498.102C242.259 497.342 239.354 495.956 239.354 492.335C239.354 488.982 242.081 486.657 246.149 486.657C250.754 486.657 253.436 488.803 254.375 492.201L253.257 493.006C252.274 489.474 249.86 487.909 246.104 487.909C243.019 487.909 240.739 489.519 240.739 492.335C240.739 495.062 242.707 496.046 246.015 496.851L249.055 497.611C252.855 498.549 255.046 500.159 255.046 503.288C255.046 507.133 251.782 508.832 248.071 508.832ZM272.292 508.385H270.862V478.431H272.292V508.385ZM281.32 508.385H279.845V487.105H281.32V493.408C281.946 489.697 284.584 486.657 288.652 486.657C292.363 486.657 294.777 488.803 295.045 493.587C295.626 489.787 298.264 486.657 302.422 486.657C306.356 486.657 308.859 489.072 308.859 494.526V508.385H307.429V494.705C307.429 490.189 305.506 487.909 302.019 487.909C297.415 487.909 295.09 491.799 295.09 495.778V508.385H293.659V494.705C293.659 490.189 291.737 487.909 288.25 487.909C283.645 487.909 281.32 491.799 281.32 495.778V508.385ZM323.92 508.832C318.108 508.832 314.129 504.495 314.129 497.745C314.129 491.039 318.108 486.657 323.92 486.657C329.687 486.657 333.711 491.039 333.711 497.745C333.711 504.495 329.687 508.832 323.92 508.832ZM323.92 507.58C328.882 507.58 332.28 503.78 332.28 497.745C332.28 491.709 328.882 487.909 323.92 487.909C318.913 487.909 315.56 491.709 315.56 497.745C315.56 503.78 318.913 507.58 323.92 507.58ZM340.827 508.385H339.352V478.431H340.827V492.872C341.453 489.429 344.225 486.657 348.204 486.657C354.105 486.657 357.324 491.083 357.324 497.745C357.324 504.451 354.105 508.832 348.204 508.832C344.225 508.832 341.453 506.06 340.827 502.662V508.385ZM340.827 500.472C340.827 504.048 343.375 507.58 347.98 507.58C352.629 507.58 355.848 504.54 355.848 497.745C355.848 490.994 352.629 487.909 347.98 487.909C343.375 487.909 340.827 491.441 340.827 495.018V500.472ZM364.359 482.902H362.884V478.431H364.359V482.902ZM364.359 508.385H362.884V487.105H364.359V508.385ZM372.698 508.385H371.222V478.431H372.698V508.385ZM381.037 482.902H379.561V478.431H381.037V482.902ZM381.037 508.385H379.561V487.105H381.037V508.385ZM395.679 483.93H394.293L398.808 478.655H400.641L395.679 483.93ZM391.611 508.832C388.302 508.832 386.425 507.178 386.425 504.361C386.425 501.679 388.392 499.98 391.208 498.683L399.837 494.66L399.792 493.542C399.792 489.608 397.646 488.043 394.382 488.043C390.985 488.043 388.258 489.921 387.051 492.29L386.022 491.262C387.319 488.982 390.359 486.657 394.472 486.657C399.121 486.657 401.223 489.25 401.223 493.453V505.3C401.223 506.641 401.893 507.088 403.145 507.088H404.218V508.385H402.966C400.954 508.385 399.837 507.625 399.837 505.434V502.036C399.166 505.568 395.634 508.832 391.611 508.832ZM387.855 504.227C387.855 506.507 389.599 507.58 391.834 507.58C396.439 507.58 399.837 503.467 399.837 500.874V495.867L391.924 499.622C389.107 500.919 387.855 502.215 387.855 504.227ZM410.899 508.385H409.424V487.105H410.899V493.408C411.525 489.787 414.118 486.657 417.829 486.657C420.6 486.657 422.433 488.312 422.433 491.039C422.433 492.29 422.165 493.632 421.673 494.66H420.109C420.6 493.9 421.047 492.514 421.047 491.128C421.047 489.474 419.974 487.865 417.426 487.865C413.581 487.865 410.899 491.978 410.899 495.778V508.385ZM428.624 482.902H427.149V478.431H428.624V482.902ZM428.624 508.385H427.149V487.105H428.624V508.385ZM443.937 508.832C438.126 508.832 434.147 504.495 434.147 497.745C434.147 491.039 438.126 486.657 443.937 486.657C449.705 486.657 453.728 491.039 453.728 497.745C453.728 504.495 449.705 508.832 443.937 508.832ZM443.937 507.58C448.9 507.58 452.298 503.78 452.298 497.745C452.298 491.709 448.9 487.909 443.937 487.909C438.93 487.909 435.577 491.709 435.577 497.745C435.577 503.78 438.93 507.58 443.937 507.58ZM466.888 508.832C462.731 508.832 458.662 506.865 457.634 502.484L458.796 501.589C459.378 505.211 462.507 507.58 466.933 507.58C470.331 507.58 472.477 506.105 472.477 503.333C472.477 500.74 470.644 499.622 467.156 498.773L464.206 498.102C461.076 497.342 458.17 495.956 458.17 492.335C458.17 488.982 460.898 486.657 464.966 486.657C469.571 486.657 472.253 488.803 473.192 492.201L472.074 493.006C471.091 489.474 468.676 487.909 464.921 487.909C461.836 487.909 459.556 489.519 459.556 492.335C459.556 495.062 461.523 496.046 464.832 496.851L467.872 497.611C471.672 498.549 473.862 500.159 473.862 503.288C473.862 507.133 470.599 508.832 466.888 508.832Z" fill="#3E1132"/>
<path fill-rule="evenodd" clip-rule="evenodd" d="M230.846 1.62306C233.655 -0.576257 237.613 -0.536658 240.377 1.71877L329.013 74.0557C330.789 75.5049 331.82 77.6759 331.82 79.9678V271.37C331.82 275.584 328.403 279.002 324.189 279.002H218.77C214.556 279.002 211.14 275.584 211.139 271.37V238.243H143.076C138.862 238.243 135.445 234.826 135.445 230.612V80.0479C135.445 77.7019 136.525 75.4855 138.372 74.0391L230.846 1.62306ZM238.852 3.58595C236.961 2.04294 234.253 2.01579 232.332 3.52052L139.857 75.9365C138.593 76.9262 137.855 78.4428 137.855 80.0479V230.612C137.855 233.496 140.193 235.834 143.076 235.834H211.139V83.3438C211.14 79.1294 214.556 75.7129 218.77 75.7129H247.04C251.254 75.7131 254.671 79.1295 254.671 83.3438V230.612C254.67 234.827 251.254 238.243 247.04 238.243H213.549V271.37C213.549 274.254 215.887 276.592 218.77 276.592H324.189C327.072 276.592 329.41 274.253 329.41 271.37V79.9678C329.41 78.3997 328.705 76.9144 327.49 75.9229L238.852 3.58595ZM251.385 80.4502C251.134 98.7963 248.514 127.611 244.638 148.425C243.618 153.905 242.507 158.853 241.323 162.919C240.148 166.954 238.871 170.231 237.48 172.293C236.79 173.316 235.982 174.176 235.018 174.605C233.958 175.076 232.855 174.959 231.86 174.304C230.941 173.698 230.142 172.659 229.419 171.32C228.684 169.961 227.966 168.181 227.262 165.965C226.582 163.822 225.946 162.23 225.36 161.111C224.754 159.953 224.28 159.458 224.006 159.295C223.9 159.232 223.872 159.247 223.894 159.245C223.882 159.248 223.829 159.265 223.735 159.341C223.448 159.572 223.049 160.121 222.6 161.146C221.721 163.152 220.899 166.379 220.145 170.488C219.396 174.572 218.729 179.442 218.133 184.683C216.939 195.164 216.033 207.069 215.313 217.033C214.724 225.19 214.254 232.12 213.848 235.834H247.04C249.923 235.834 252.26 233.496 252.26 230.612V83.3438C252.26 82.2735 251.938 81.2784 251.385 80.4502ZM218.77 78.1231C215.887 78.1231 213.549 80.4603 213.549 83.3438V208.267C214.152 200.435 214.868 192.05 215.738 184.409C216.338 179.142 217.012 174.212 217.775 170.053C218.533 165.919 219.394 162.458 220.393 160.179C220.883 159.061 221.472 158.068 222.225 157.462C222.621 157.144 223.105 156.9 223.667 156.847C224.236 156.793 224.769 156.947 225.236 157.224C226.109 157.742 226.84 158.742 227.496 159.994C228.173 161.287 228.857 163.026 229.559 165.235C230.238 167.371 230.901 168.996 231.538 170.174C232.186 171.372 232.753 172.006 233.185 172.291C233.542 172.526 233.78 172.519 234.04 172.403C234.397 172.244 234.893 171.819 235.483 170.944C236.653 169.21 237.847 166.238 239.01 162.245C240.163 158.283 241.257 153.42 242.269 147.984C246.258 126.561 248.911 96.5546 248.993 78.502C248.389 78.2583 247.731 78.1231 247.04 78.1231H218.77Z" fill="#3E1132"/>
</svg>
