<svg xmlns="http://www.w3.org/2000/svg" viewBox="0 0 32 32">
  <rect width="32" height="32" rx="6" fill="#4A1942"/>
  <g transform="translate(8.4,5) scale(0.063)">
    <path d="M118.767 2.0206C122.263 -0.717401 127.19 -0.668099 130.631 2.13974L240.978 92.1934C243.188 93.9976 244.471 96.6995 244.471 99.5528V337.834C244.471 343.081 240.217 347.334 234.971 347.334H103.732C98.4858 347.334 94.2324 343.081 94.2324 337.834V296.594H9.5C4.25337 296.594 0.000115449 292.34 0 287.094V99.6524C0 96.7319 1.34327 93.9736 3.64258 92.1729L118.767 2.0206ZM128.733 4.46396C126.379 2.54298 123.008 2.50861 120.616 4.38193L5.49219 94.5352C3.91913 95.7673 3 97.6543 3 99.6524V287.094C3.00012 290.684 5.91022 293.594 9.5 293.594H94.2324V103.756C94.2325 98.5094 98.4858 94.2561 103.732 94.2559H138.926C144.172 94.2559 148.426 98.5093 148.426 103.756V287.094C148.426 292.34 144.172 296.594 138.926 296.594H97.2324V337.834C97.2324 341.424 100.143 344.334 103.732 344.334H234.971C238.561 344.334 241.471 341.424 241.471 337.834V99.5528C241.471 97.6007 240.593 95.752 239.081 94.5177L128.733 4.46396ZM144.336 100.154C144.023 122.994 140.762 158.866 135.938 184.777C134.667 191.6 133.284 197.758 131.811 202.82C130.348 207.844 128.758 211.924 127.026 214.49C126.167 215.764 125.162 216.836 123.962 217.369C122.641 217.957 121.268 217.811 120.029 216.994C118.885 216.24 117.891 214.946 116.99 213.279C116.075 211.587 115.182 209.372 114.306 206.612C113.458 203.945 112.667 201.964 111.938 200.571C111.183 199.128 110.594 198.513 110.252 198.31C110.174 198.264 110.13 198.251 110.112 198.248C110.097 198.252 110.032 198.272 109.915 198.366C109.558 198.653 109.061 199.338 108.502 200.614C107.407 203.112 106.384 207.129 105.445 212.244C104.513 217.328 103.682 223.391 102.939 229.915C101.454 242.963 100.326 257.784 99.4297 270.189C98.6958 280.342 98.1098 288.969 97.6055 293.594H138.926C142.516 293.594 145.426 290.684 145.426 287.094V103.756C145.426 102.424 145.024 101.185 144.336 100.154ZM103.732 97.2559C100.143 97.2561 97.2325 100.166 97.2324 103.756V259.295C97.9834 249.54 98.875 239.094 99.959 229.575C100.706 223.017 101.545 216.88 102.495 211.702C103.439 206.556 104.51 202.247 105.754 199.409C106.364 198.018 107.097 196.782 108.035 196.028C108.528 195.632 109.13 195.327 109.83 195.261C110.539 195.194 111.202 195.386 111.783 195.731C112.87 196.376 113.78 197.622 114.596 199.181C115.438 200.79 116.291 202.954 117.165 205.704C118.01 208.364 118.836 210.386 119.629 211.853C120.436 213.345 121.141 214.134 121.68 214.489C122.124 214.782 122.419 214.772 122.743 214.628C123.188 214.43 123.805 213.902 124.54 212.813C125.997 210.653 127.482 206.953 128.93 201.982C130.366 197.049 131.728 190.996 132.988 184.229C137.954 157.558 141.257 120.202 141.358 97.7276C140.607 97.4241 139.786 97.2559 138.926 97.2559H103.732Z" fill="#F0C986" stroke="#F0C986" stroke-width="22" stroke-linejoin="round"/>
  </g>
</svg>
